<svg width="160" height="40" viewBox="0 0 160 40" fill="none" xmlns="http://www.w3.org/2000/svg">
<path d="M24.0335 17.1828C24.0334 15.4488 23.6574 13.7355 22.9314 12.1608C22.2054 10.5861 21.1466 9.18753 19.8281 8.06142C19.6908 8.01821 19.5523 7.97584 19.4125 7.93433C18.5443 8.1664 17.7133 8.52026 16.9443 8.98538C18.3588 9.83454 19.5293 11.0354 20.342 12.4712C21.1546 13.9069 21.5817 15.5286 21.5817 17.1784C21.5817 18.8281 21.1546 20.4498 20.342 21.8856C19.5293 23.3213 18.3588 24.5222 16.9443 25.3713C17.7131 25.8366 18.5441 26.19 19.4125 26.4211C19.5523 26.3843 19.6908 26.3436 19.8281 26.3004C21.1461 25.1746 22.2045 23.7767 22.9305 22.2027C23.6565 20.6287 24.0328 18.9161 24.0335 17.1828Z" fill="url(#paint0_linear_988_161)"/>
<path d="M2.44704 17.1832C2.44986 15.1494 3.09944 13.1693 4.30187 11.5291C5.5043 9.88897 7.19725 8.67375 9.13589 8.05922C10.6679 6.74315 12.5075 5.83519 14.4839 5.41952C12.7344 5.05294 10.9251 5.08121 9.1879 5.50228C7.45067 5.92334 5.82924 6.7266 4.44171 7.85353C3.05417 8.98047 1.93547 10.4027 1.16709 12.0167C0.398711 13.6306 0 15.3956 0 17.1832C0 18.9707 0.398711 20.7357 1.16709 22.3496C1.93547 23.9636 3.05417 25.3858 4.44171 26.5128C5.82924 27.6397 7.45067 28.443 9.1879 28.864C10.9251 29.2851 12.7344 29.3134 14.4839 28.9468C12.5109 28.53 10.6749 27.6221 9.14606 26.3071C7.20541 25.6945 5.51013 24.4801 4.30573 22.8397C3.10133 21.1994 2.45034 19.2182 2.44704 17.1832V17.1832Z" fill="url(#paint1_linear_988_161)"/>
<path d="M28.9724 17.1836C28.9723 15.4489 28.5959 13.7348 27.8692 12.1597C27.1425 10.5845 26.0827 9.18567 24.7631 8.0597C23.0291 7.51383 21.1756 7.4724 19.4189 7.94023C21.4557 8.48321 23.2561 9.68373 24.5404 11.3553C25.8247 13.0268 26.521 15.0757 26.521 17.1836C26.521 19.2916 25.8247 21.3405 24.5404 23.012C23.2561 24.6835 21.4557 25.884 19.4189 26.427C21.1754 26.8966 23.0294 26.8552 24.7631 26.3076C26.0829 25.1818 27.1428 23.783 27.8695 22.2078C28.5962 20.6325 28.9725 18.9184 28.9724 17.1836V17.1836Z" fill="url(#paint2_linear_988_161)"/>
<path d="M14.0682 26.3071C12.1282 25.6949 10.4339 24.4802 9.2312 22.8395C8.02851 21.1988 7.38009 19.2175 7.38009 17.1832C7.38009 15.1489 8.02851 13.1675 9.2312 11.5268C10.4339 9.88609 12.1282 8.67144 14.0682 8.05922C15.5992 6.74372 17.4373 5.83579 19.4125 5.41952C17.6629 5.05294 15.8536 5.08121 14.1164 5.50228C12.3792 5.92334 10.7578 6.7266 9.37023 7.85353C7.9827 8.98047 6.864 10.4027 6.09562 12.0167C5.32724 13.6306 4.92853 15.3956 4.92853 17.1832C4.92853 18.9707 5.32724 20.7357 6.09562 22.3496C6.864 23.9636 7.9827 25.3858 9.37023 26.5128C10.7578 27.6397 12.3792 28.443 14.1164 28.864C15.8536 29.2851 17.6629 29.3134 19.4125 28.9468C17.4372 28.531 15.5989 27.623 14.0682 26.3071V26.3071Z" fill="url(#paint3_linear_988_161)"/>
<path d="M21.8794 5.16406C19.5023 5.16406 17.1785 5.86897 15.202 7.18964C13.2255 8.51032 11.685 10.3874 10.7753 12.5836C9.86556 14.7798 9.62754 17.1965 10.0913 19.528C10.5551 21.8594 11.6998 24.001 13.3807 25.6819C15.0616 27.3628 17.2032 28.5075 19.5346 28.9713C21.8661 29.4351 24.2828 29.197 26.479 28.2873C28.6752 27.3776 30.5523 25.8371 31.873 23.8606C33.1936 21.8841 33.8985 19.5603 33.8985 17.1832C33.8948 13.9966 32.6274 10.9417 30.3741 8.68846C28.1209 6.43524 25.066 5.16776 21.8794 5.16406V5.16406ZM31.4457 17.1832C31.4459 19.0755 30.885 20.9255 29.8338 22.499C28.7826 24.0726 27.2884 25.2991 25.5401 26.0234C23.7918 26.7477 21.868 26.9373 20.012 26.5681C18.1559 26.199 16.4511 25.2878 15.1129 23.9497C13.7748 22.6115 12.8636 20.9067 12.4945 19.0506C12.1253 17.1946 12.3149 15.2708 13.0392 13.5225C13.7635 11.7742 14.99 10.28 16.5636 9.22882C18.1371 8.17763 19.9871 7.61669 21.8794 7.61694C24.4156 7.61996 26.8471 8.6288 28.6404 10.4222C30.4338 12.2155 31.4426 14.647 31.4457 17.1832V17.1832Z" fill="white"/>
<path d="M44.253 10.8734C44.9864 9.32207 46.1428 8.0387 47.7223 7.02329C49.3301 5.97966 51.234 5.45785 53.434 5.45785C55.5213 5.45785 57.397 5.95146 59.0611 6.93867C60.7535 7.89767 62.0651 9.27976 62.9959 11.0849C63.9549 12.8619 64.4344 14.9351 64.4344 17.3044C64.4344 19.6737 63.9549 21.7609 62.9959 23.5661C62.0651 25.3713 60.7535 26.7675 59.0611 27.7547C57.397 28.7419 55.5213 29.2355 53.434 29.2355C51.2622 29.2355 49.3724 28.7278 47.7646 27.7124C46.1569 26.6687 44.9864 25.3713 44.253 23.8199V39.8127H41.3337V5.79633H44.253V10.8734ZM61.4304 17.3044C61.4304 15.3864 61.0496 13.7363 60.2881 12.3542C59.5547 10.9439 58.5393 9.87209 57.2418 9.13873C55.9444 8.40538 54.4777 8.0387 52.8417 8.0387C51.2622 8.0387 49.8096 8.41948 48.4839 9.18104C47.1864 9.9426 46.1569 11.0285 45.3953 12.4388C44.6338 13.8491 44.253 15.4851 44.253 17.3467C44.253 19.2083 44.6338 20.8442 45.3953 22.2545C46.1569 23.6648 47.1864 24.7507 48.4839 25.5123C49.8096 26.2739 51.2622 26.6546 52.8417 26.6546C54.4777 26.6546 55.9444 26.288 57.2418 25.5546C58.5393 24.793 59.5547 23.7071 60.2881 22.2968C61.0496 20.8583 61.4304 19.1942 61.4304 17.3044Z" fill="white"/>
<path d="M69.884 9.90029C70.5327 8.46179 71.5199 7.34765 72.8456 6.55789C74.1995 5.76812 75.8495 5.37324 77.7957 5.37324V8.46179H76.9919C74.8482 8.46179 73.1276 9.04001 71.8302 10.1965C70.5327 11.3529 69.884 13.285 69.884 15.9928V28.897H66.9223V5.79633H69.884V9.90029Z" fill="white"/>
<path d="M89.4013 29.2355C87.2294 29.2355 85.2691 28.756 83.5203 27.797C81.7998 26.8098 80.4318 25.4277 79.4164 23.6507C78.4291 21.8455 77.9355 19.7442 77.9355 17.3467C77.9355 14.9492 78.4433 12.8619 79.4587 11.0849C80.4741 9.27976 81.8562 7.89767 83.6049 6.93867C85.3537 5.95146 87.314 5.45785 89.4859 5.45785C91.6577 5.45785 93.6181 5.95146 95.3668 6.93867C97.1438 7.89767 98.5259 9.27976 99.5131 11.0849C100.529 12.8619 101.036 14.9492 101.036 17.3467C101.036 19.716 100.529 21.8032 99.5131 23.6084C98.4977 25.4136 97.1015 26.8098 95.3245 27.797C93.5475 28.756 91.5731 29.2355 89.4013 29.2355ZM89.4013 26.6546C90.9244 26.6546 92.3347 26.3162 93.6322 25.6392C94.9296 24.9341 95.9733 23.8905 96.763 22.5084C97.581 21.0981 97.99 19.3775 97.99 17.3467C97.99 15.3158 97.5951 13.6094 96.8053 12.2273C96.0156 10.817 94.972 9.77337 93.6745 9.09642C92.377 8.39127 90.9667 8.0387 89.4436 8.0387C87.9205 8.0387 86.5102 8.39127 85.2127 9.09642C83.9152 9.77337 82.8716 10.817 82.0818 12.2273C81.3203 13.6094 80.9395 15.3158 80.9395 17.3467C80.9395 19.3775 81.3203 21.0981 82.0818 22.5084C82.8716 23.8905 83.9011 24.9341 85.1704 25.6392C86.4679 26.3162 87.8782 26.6546 89.4013 26.6546Z" fill="white"/>
<path d="M107.323 8.29255V22.6353C107.323 24.0456 107.591 25.0187 108.127 25.5546C108.663 26.0905 109.608 26.3585 110.962 26.3585H113.67V28.897H110.497C108.409 28.897 106.858 28.4175 105.843 27.4585C104.827 26.4713 104.319 24.8636 104.319 22.6353V8.29255H101.104V5.79633H104.319V0H107.323V5.79633H113.67V8.29255H107.323Z" fill="white"/>
<path d="M125.704 29.2355C123.532 29.2355 121.572 28.756 119.823 27.797C118.103 26.8098 116.735 25.4277 115.719 23.6507C114.732 21.8455 114.239 19.7442 114.239 17.3467C114.239 14.9492 114.746 12.8619 115.762 11.0849C116.777 9.27976 118.159 7.89767 119.908 6.93867C121.657 5.95146 123.617 5.45785 125.789 5.45785C127.961 5.45785 129.921 5.95146 131.67 6.93867C133.447 7.89767 134.829 9.27976 135.816 11.0849C136.832 12.8619 137.339 14.9492 137.339 17.3467C137.339 19.716 136.832 21.8032 135.816 23.6084C134.801 25.4136 133.405 26.8098 131.628 27.797C129.851 28.756 127.876 29.2355 125.704 29.2355ZM125.704 26.6546C127.227 26.6546 128.638 26.3162 129.935 25.6392C131.233 24.9341 132.276 23.8905 133.066 22.5084C133.884 21.0981 134.293 19.3775 134.293 17.3467C134.293 15.3158 133.898 13.6094 133.108 12.2273C132.319 10.817 131.275 9.77337 129.978 9.09642C128.68 8.39127 127.27 8.0387 125.747 8.0387C124.224 8.0387 122.813 8.39127 121.516 9.09642C120.218 9.77337 119.175 10.817 118.385 12.2273C117.623 13.6094 117.243 15.3158 117.243 17.3467C117.243 19.3775 117.623 21.0981 118.385 22.5084C119.175 23.8905 120.204 24.9341 121.473 25.6392C122.771 26.3162 124.181 26.6546 125.704 26.6546Z" fill="white"/>
<path d="M150.607 5.37324C153.372 5.37324 155.628 6.23352 157.377 7.95408C159.126 9.64644 160 12.1145 160 15.3581V28.897H157.081V15.6966C157.081 13.1863 156.446 11.2683 155.177 9.9426C153.936 8.61692 152.229 7.95408 150.057 7.95408C147.829 7.95408 146.052 8.65923 144.726 10.0695C143.401 11.4798 142.738 13.553 142.738 16.2889V28.897H139.776V5.79633H142.738V9.73106C143.471 8.32076 144.529 7.24893 145.911 6.51558C147.293 5.75402 148.859 5.37324 150.607 5.37324Z" fill="white"/>
<defs>
<linearGradient id="paint0_linear_988_161" x1="29.9865" y1="17.1828" x2="-0.276627" y2="17.1828" gradientUnits="userSpaceOnUse">
<stop stop-color="#D53C97"/>
<stop offset="0.52" stop-color="#AC1BB5"/>
<stop offset="1" stop-color="#8934D9"/>
</linearGradient>
<linearGradient id="paint1_linear_988_161" x1="29.9866" y1="17.1832" x2="-0.276539" y2="17.1832" gradientUnits="userSpaceOnUse">
<stop stop-color="#D53C97"/>
<stop offset="0.52" stop-color="#AC1BB5"/>
<stop offset="1" stop-color="#8934D9"/>
</linearGradient>
<linearGradient id="paint2_linear_988_161" x1="29.9866" y1="17.1836" x2="-0.27656" y2="17.1836" gradientUnits="userSpaceOnUse">
<stop stop-color="#FF3B65"/>
<stop offset="0.61" stop-color="#F9597C"/>
<stop offset="1" stop-color="#D53C97"/>
</linearGradient>
<linearGradient id="paint3_linear_988_161" x1="29.9865" y1="17.1832" x2="-0.276638" y2="17.1832" gradientUnits="userSpaceOnUse">
<stop stop-color="#FF3B65"/>
<stop offset="0.61" stop-color="#F9597C"/>
<stop offset="1" stop-color="#D53C97"/>
</linearGradient>
</defs>
</svg>
