<svg width="1502" height="300" viewBox="0 0 1502 300" fill="none" xmlns="http://www.w3.org/2000/svg">
<path d="M1038.71 53.2842C1082.14 53.2842 1109.99 87.2417 1100.81 140.157C1091.32 193.072 1051.26 228.247 1008.13 228.247C981.517 228.247 964.69 215.092 956.738 201.328L944.533 271.153C943.118 279.231 938.901 286.551 932.623 291.827C926.345 297.103 918.407 299.997 910.207 300H899.478C899.097 300 898.72 299.917 898.374 299.756C898.028 299.596 897.722 299.361 897.477 299.069C897.231 298.777 897.053 298.435 896.954 298.067C896.855 297.698 896.838 297.313 896.904 296.937L938.934 58.2012C939.038 57.5952 939.354 57.0459 939.825 56.6507C940.297 56.2555 940.893 56.0401 941.507 56.0425H979.33C979.711 56.0419 980.088 56.1249 980.433 56.2859C980.779 56.4468 981.085 56.6817 981.329 56.9738C981.574 57.266 981.751 57.6083 981.849 57.9766C981.947 58.3449 981.963 58.7302 981.895 59.1052L978.15 80.5074C985.768 71.9731 995.098 65.1383 1005.53 60.448C1015.97 55.7576 1027.27 53.3168 1038.71 53.2842ZM1020.97 90.9133C998.03 90.9133 973.002 108.653 967.467 140.729C961.655 172.851 980.004 190.544 1003.25 190.544C1026.5 190.544 1051.28 172.186 1057.09 140.074C1062.58 108.035 1044.25 90.9133 1020.98 90.9133H1020.97Z" fill="white"/>
<path d="M1183.44 0H1145.56C1144.96 0.00168427 1144.39 0.212312 1143.93 0.595082C1143.48 0.977852 1143.17 1.50842 1143.07 2.0941L1104.21 222.122C1104.14 222.504 1104.16 222.897 1104.26 223.272C1104.36 223.647 1104.54 223.995 1104.79 224.292C1105.04 224.589 1105.35 224.828 1105.71 224.992C1106.06 225.156 1106.44 225.24 1106.83 225.24H1144.72C1145.31 225.24 1145.89 225.032 1146.34 224.65C1146.8 224.269 1147.1 223.74 1147.21 223.155L1186.06 3.12731C1186.13 2.7445 1186.11 2.35163 1186.01 1.9762C1185.91 1.60078 1185.73 1.25188 1185.48 0.953949C1185.23 0.65602 1184.92 0.416265 1184.57 0.251479C1184.22 0.0866937 1183.83 0.000863066 1183.44 0V0Z" fill="white"/>
<path d="M1355.01 55.5813H1317.53C1316.91 55.5823 1316.3 55.8027 1315.82 56.204C1315.34 56.6052 1315.02 57.1619 1314.91 57.7769L1298.77 148.985C1294.16 176.245 1276.42 190.941 1253.44 190.941C1230.47 190.941 1218.22 176.245 1222.82 148.985L1238.8 58.7178C1238.87 58.3338 1238.85 57.9397 1238.75 57.5632C1238.65 57.1867 1238.47 56.8368 1238.22 56.538C1237.97 56.2392 1237.66 55.9988 1237.3 55.8335C1236.95 55.6683 1236.57 55.5822 1236.18 55.5813H1198.7C1198.08 55.5808 1197.48 55.7999 1197 56.1999C1196.53 56.5999 1196.21 57.1551 1196.1 57.7676L1179.03 155.111C1172.79 190.231 1184.87 213.496 1208.26 222.795L1208.44 222.878L1208.93 223.054C1210.93 223.814 1212.96 224.467 1215.02 225.009C1230.25 229.345 1254.69 231.854 1287.46 212.629L1285.82 222.14C1285.76 222.521 1285.78 222.911 1285.88 223.284C1285.98 223.656 1286.16 224.003 1286.41 224.298C1286.66 224.593 1286.97 224.831 1287.32 224.993C1287.67 225.156 1288.05 225.24 1288.44 225.24H1325.94C1326.56 225.239 1327.16 225.02 1327.64 224.621C1328.12 224.221 1328.44 223.667 1328.56 223.054L1357.62 58.6994C1357.69 58.3178 1357.67 57.9261 1357.57 57.5518C1357.47 57.1775 1357.29 56.8296 1357.04 56.5325C1356.8 56.2354 1356.48 55.9964 1356.13 55.832C1355.78 55.6677 1355.4 55.5821 1355.01 55.5813Z" fill="white"/>
<path d="M1436.31 52.823C1395.27 52.823 1367.4 73.9577 1367.4 103.976C1367.4 159.096 1451.62 150.517 1451.62 178.081C1451.62 190.074 1438.45 195.535 1423.14 195.535C1406.19 195.535 1395.98 186.91 1395.79 174.216C1395.77 173.528 1395.49 172.873 1394.99 172.393C1394.5 171.913 1393.84 171.646 1393.15 171.651H1356.6C1355.95 171.647 1355.31 171.883 1354.82 172.316C1354.33 172.748 1354.02 173.346 1353.94 173.995C1350.77 205.821 1380.32 227.998 1420.08 227.998C1461.73 227.998 1492.96 209.013 1492.96 176.854C1492.96 124.179 1409.35 131.227 1409.35 102.749C1409.35 92.0296 1419.76 85.2861 1434.46 85.2861C1451.41 85.2861 1461.07 93.5887 1461.21 106.282C1461.22 106.976 1461.51 107.636 1462 108.122C1462.5 108.607 1463.17 108.877 1463.86 108.875H1498.45C1499.13 108.879 1499.78 108.625 1500.28 108.166C1500.77 107.707 1501.07 107.076 1501.12 106.402C1502.96 74.9448 1476.63 52.823 1436.31 52.823Z" fill="white"/>
<path d="M323.445 76.1347H300.161V58.0535H323.445V0H345.198V58.0535H391.111V76.1347H345.198V179.982C345.198 200.507 352.236 206.937 371.535 206.937H391.111V225.323H368.168C339.063 225.323 323.445 213.376 323.445 179.982V76.1347Z" fill="white"/>
<path d="M413.168 58.0535H434.616V225.323H413.168V58.0535Z" fill="white"/>
<path d="M702.236 129.742C702.236 92.6755 682.937 73.681 653.223 73.681C622.891 73.681 601.443 93.8932 601.443 134.687V225.369H580.308V129.742C580.308 92.6755 560.705 73.681 530.991 73.681C500.354 73.681 479.22 93.8932 479.22 134.64V225.323H457.771V58.0537H479.22V86.8544C489.939 65.7105 511.074 54.991 534.662 54.991C562.541 54.991 586.434 68.1644 596.544 96.0426C605.769 68.7733 630.244 54.991 656.895 54.991C693.961 54.991 723.371 78.2751 723.371 127.288V225.323H702.236V129.742Z" fill="white"/>
<path d="M822.531 227.768C775.05 227.768 740.428 194.686 740.428 141.688C740.428 88.3856 774.432 55.6089 822.531 55.6089C871.554 55.6089 901.572 90.5259 901.572 133.1C901.69 138.725 901.487 144.352 900.963 149.954H762.19C764.035 189.161 791.286 209.686 822.531 209.686C851.028 209.686 870.327 194.677 876.452 172.316H899.118C891.461 203.875 864.506 227.768 822.531 227.768ZM762.19 132.5H879.819C880.742 93.5886 852.559 73.9853 821.618 73.9853C791.286 73.9853 764.635 93.5886 762.19 132.5Z" fill="white"/>
<path d="M410.576 22.2509L414.367 0H435.585L431.793 22.2509H410.576Z" fill="white"/>
<path d="M174.45 140.526C174.449 127.939 171.72 115.503 166.45 104.073C161.18 92.6429 153.495 82.4913 143.924 74.3173C142.928 74.0036 141.923 73.6961 140.908 73.3948C134.606 75.0793 128.574 77.6479 122.993 81.0239C133.26 87.1877 141.756 95.9045 147.655 106.326C153.553 116.747 156.654 128.518 156.654 140.493C156.654 152.469 153.553 164.24 147.655 174.661C141.756 185.082 133.26 193.799 122.993 199.963C128.573 203.34 134.605 205.906 140.908 207.583C141.923 207.315 142.928 207.02 143.924 206.707C153.491 198.535 161.174 188.388 166.444 176.963C171.713 165.538 174.445 153.107 174.45 140.526Z" fill="#9A29C8"/>
<path d="M17.7621 140.526C17.7825 125.764 22.4976 111.391 31.2256 99.4858C39.9535 87.5804 52.2419 78.7596 66.3137 74.2989C77.4342 64.7461 90.7866 58.1556 105.133 55.1384C92.4338 52.4776 79.301 52.6828 66.6912 55.7391C54.0814 58.7955 42.3121 64.626 32.2406 72.806C22.169 80.9859 14.0488 91.3094 8.47144 103.024C2.89408 114.739 0 127.551 0 140.526C0 153.501 2.89408 166.312 8.47144 178.027C14.0488 189.742 22.169 200.066 32.2406 208.246C42.3121 216.426 54.0814 222.256 66.6912 225.313C79.301 228.369 92.4338 228.574 105.133 225.913C90.8114 222.888 77.4848 216.298 66.3876 206.753C52.3012 202.306 39.9958 193.491 31.2536 181.585C22.5113 169.678 17.7861 155.297 17.7621 140.526Z" fill="#9A29C8"/>
<path d="M210.299 140.526C210.298 127.934 207.566 115.492 202.291 104.059C197.016 92.6253 189.324 82.4718 179.745 74.2988C167.159 70.3366 153.705 70.0359 140.954 73.4317C155.738 77.373 168.807 86.0871 178.129 98.22C187.451 110.353 192.505 125.225 192.505 140.526C192.505 155.826 187.451 170.699 178.129 182.832C168.807 194.965 155.738 203.679 140.954 207.62C153.704 211.028 167.161 210.728 179.745 206.753C189.326 198.581 197.019 188.428 202.294 176.994C207.569 165.56 210.3 153.118 210.299 140.526Z" fill="#FC5075"/>
<path d="M102.116 206.753C88.0347 202.309 75.7361 193.492 67.0063 181.583C58.2764 169.674 53.5698 155.292 53.5698 140.526C53.5698 125.76 58.2764 111.378 67.0063 99.4687C75.7361 87.5595 88.0347 78.7428 102.116 74.2989C113.229 64.7502 126.571 58.16 140.908 55.1384C128.209 52.4776 115.076 52.6828 102.466 55.7391C89.8563 58.7955 78.087 64.626 68.0155 72.806C57.9439 80.9859 49.8237 91.3094 44.2463 103.024C38.669 114.739 35.7749 127.551 35.7749 140.526C35.7749 153.501 38.669 166.312 44.2463 178.027C49.8237 189.742 57.9439 200.066 68.0155 208.246C78.087 216.426 89.8563 222.256 102.466 225.313C115.076 228.369 128.209 228.574 140.908 225.913C126.57 222.896 113.227 216.305 102.116 206.753Z" fill="#FC5075"/>
<path d="M158.814 53.2842C141.559 53.2842 124.692 58.4008 110.345 67.9871C95.998 77.5733 84.8161 91.1986 78.2129 107.14C71.6098 123.081 69.8821 140.623 73.2484 157.546C76.6146 174.469 84.9236 190.014 97.1246 202.215C109.326 214.416 124.871 222.725 141.794 226.091C158.717 229.457 176.258 227.73 192.2 221.127C208.141 214.524 221.766 203.342 231.353 188.995C240.939 174.648 246.055 157.781 246.055 140.526C246.029 117.396 236.828 95.2215 220.473 78.8663C204.118 62.5112 181.943 53.311 158.814 53.2842ZM228.251 140.526C228.253 154.262 224.181 167.69 216.551 179.112C208.921 190.534 198.075 199.436 185.385 204.694C172.695 209.951 158.731 211.327 145.258 208.648C131.786 205.968 119.411 199.354 109.698 189.641C99.9856 179.928 93.3713 167.553 90.692 154.081C88.0127 140.609 89.3887 126.645 94.6461 113.955C99.9035 101.265 108.806 90.4188 120.228 82.7886C131.65 75.1584 145.078 71.0868 158.814 71.0886C177.223 71.1106 194.872 78.4333 207.889 91.4506C220.906 104.468 228.229 122.117 228.251 140.526Z" fill="white"/>
</svg>
