<svg width="1502" height="300" viewBox="0 0 1502 300" fill="none" xmlns="http://www.w3.org/2000/svg">
<path d="M1038.71 53.2834C1082.14 53.2834 1109.99 87.241 1100.81 140.156C1091.32 193.071 1051.26 228.247 1008.13 228.247C981.517 228.247 964.69 215.092 956.738 201.328L944.533 271.152C943.118 279.23 938.901 286.551 932.623 291.827C926.345 297.103 918.407 299.996 910.207 299.999H899.478C899.097 300 898.72 299.917 898.374 299.756C898.028 299.595 897.722 299.36 897.477 299.068C897.231 298.776 897.053 298.434 896.954 298.066C896.855 297.698 896.838 297.312 896.904 296.937L938.934 58.2004C939.038 57.5945 939.354 57.0451 939.825 56.65C940.297 56.2548 940.892 56.0393 941.507 56.0418H979.33C979.711 56.0411 980.088 56.1242 980.433 56.2851C980.779 56.4461 981.084 56.6809 981.329 56.9731C981.574 57.2652 981.751 57.6076 981.849 57.9759C981.947 58.3442 981.962 58.7295 981.895 59.1045L978.149 80.5067C985.768 71.9723 995.098 65.1376 1005.53 60.4473C1015.97 55.7569 1027.27 53.316 1038.71 53.2834ZM1020.97 90.9126C998.03 90.9126 973.002 108.652 967.467 140.728C961.655 172.85 980.004 190.544 1003.25 190.544C1026.5 190.544 1051.28 172.186 1057.09 140.073C1062.58 108.034 1044.25 90.9126 1020.98 90.9126H1020.97Z" fill="#2F2D32"/>
<path d="M1183.44 0H1145.56C1144.96 0.00168427 1144.39 0.212312 1143.93 0.595082C1143.48 0.977852 1143.17 1.50842 1143.07 2.0941L1104.21 222.122C1104.14 222.504 1104.16 222.897 1104.26 223.272C1104.36 223.647 1104.54 223.995 1104.79 224.292C1105.04 224.589 1105.35 224.828 1105.71 224.992C1106.06 225.156 1106.44 225.24 1106.83 225.24H1144.72C1145.31 225.24 1145.89 225.032 1146.34 224.65C1146.8 224.269 1147.1 223.74 1147.21 223.155L1186.06 3.12731C1186.13 2.7445 1186.11 2.35163 1186.01 1.9762C1185.91 1.60078 1185.73 1.25188 1185.48 0.953949C1185.23 0.65602 1184.92 0.416265 1184.57 0.251479C1184.22 0.0866937 1183.83 0.000863066 1183.44 0V0Z" fill="#2F2D32"/>
<path d="M1355.01 55.5812H1317.53C1316.91 55.5822 1316.3 55.8026 1315.82 56.2038C1315.34 56.6051 1315.02 57.1618 1314.91 57.7768L1298.77 148.985C1294.15 176.245 1276.42 190.941 1253.44 190.941C1230.47 190.941 1218.22 176.245 1222.82 148.985L1238.8 58.7177C1238.87 58.3337 1238.85 57.9396 1238.75 57.5631C1238.65 57.1865 1238.47 56.8366 1238.22 56.5379C1237.97 56.2391 1237.66 55.9986 1237.3 55.8334C1236.95 55.6681 1236.57 55.5821 1236.18 55.5812H1198.7C1198.08 55.5807 1197.48 55.7998 1197 56.1998C1196.53 56.5998 1196.21 57.155 1196.1 57.7675L1179.03 155.111C1172.79 190.231 1184.87 213.496 1208.26 222.795L1208.44 222.878L1208.93 223.053C1210.93 223.814 1212.96 224.467 1215.02 225.009C1230.25 229.345 1254.69 231.854 1287.46 212.629L1285.82 222.14C1285.76 222.521 1285.78 222.911 1285.88 223.284C1285.98 223.656 1286.16 224.003 1286.41 224.298C1286.66 224.593 1286.97 224.831 1287.32 224.993C1287.67 225.156 1288.05 225.24 1288.44 225.24H1325.94C1326.56 225.239 1327.16 225.02 1327.64 224.621C1328.12 224.221 1328.44 223.667 1328.56 223.053L1357.62 58.6993C1357.69 58.3177 1357.67 57.926 1357.57 57.5517C1357.47 57.1774 1357.29 56.8295 1357.04 56.5324C1356.8 56.2353 1356.48 55.9962 1356.13 55.8319C1355.78 55.6676 1355.4 55.582 1355.01 55.5812Z" fill="#2F2D32"/>
<path d="M1436.31 52.823C1395.27 52.823 1367.4 73.9577 1367.4 103.976C1367.4 159.096 1451.62 150.517 1451.62 178.081C1451.62 190.074 1438.45 195.535 1423.14 195.535C1406.19 195.535 1395.98 186.91 1395.79 174.216C1395.77 173.528 1395.49 172.873 1394.99 172.393C1394.5 171.913 1393.84 171.646 1393.15 171.651H1356.6C1355.95 171.647 1355.31 171.883 1354.82 172.316C1354.33 172.748 1354.02 173.346 1353.94 173.995C1350.77 205.821 1380.32 227.998 1420.08 227.998C1461.73 227.998 1492.96 209.013 1492.96 176.854C1492.96 124.179 1409.35 131.227 1409.35 102.749C1409.35 92.0296 1419.76 85.2861 1434.46 85.2861C1451.41 85.2861 1461.07 93.5887 1461.21 106.282C1461.22 106.976 1461.51 107.636 1462 108.122C1462.5 108.607 1463.17 108.877 1463.86 108.875H1498.45C1499.13 108.879 1499.78 108.625 1500.28 108.166C1500.77 107.707 1501.07 107.076 1501.12 106.402C1502.96 74.9448 1476.63 52.823 1436.31 52.823Z" fill="#2F2D32"/>
<path d="M323.445 76.1347H300.161V58.0535H323.445V0H345.197V58.0535H391.111V76.1347H345.197V179.982C345.197 200.507 352.236 206.937 371.535 206.937H391.111V225.323H368.168C339.063 225.323 323.445 213.376 323.445 179.982V76.1347Z" fill="#2F2D32"/>
<path d="M413.168 58.0537H434.616V225.323H413.168V58.0537Z" fill="#2F2D32"/>
<path d="M702.236 129.742C702.236 92.6755 682.937 73.681 653.223 73.681C622.891 73.681 601.443 93.8932 601.443 134.687V225.369H580.308V129.742C580.308 92.6755 560.705 73.681 530.991 73.681C500.354 73.681 479.22 93.8932 479.22 134.64V225.323H457.771V58.0537H479.22V86.8544C489.939 65.7105 511.074 54.991 534.663 54.991C562.541 54.991 586.434 68.1644 596.544 96.0426C605.77 68.7733 630.244 54.991 656.895 54.991C693.961 54.991 723.371 78.2751 723.371 127.288V225.323H702.236V129.742Z" fill="#2F2D32"/>
<path d="M822.531 227.767C775.05 227.767 740.428 194.686 740.428 141.688C740.428 88.3852 774.432 55.6084 822.531 55.6084C871.553 55.6084 901.572 90.5254 901.572 133.099C901.69 138.724 901.487 144.352 900.963 149.953H762.19C764.035 189.16 791.286 209.686 822.531 209.686C851.028 209.686 870.327 194.677 876.452 172.315H899.118C891.461 203.874 864.505 227.767 822.531 227.767ZM762.19 132.5H879.819C880.742 93.5881 852.559 73.9848 821.618 73.9848C791.286 73.9848 764.635 93.5881 762.19 132.5Z" fill="#2F2D32"/>
<path d="M410.576 22.2509L414.367 0H435.585L431.793 22.2509H410.576Z" fill="#2F2D32"/>
<path d="M174.45 140.524C174.45 127.938 171.72 115.501 166.45 104.071C161.18 92.6415 153.495 82.4898 143.924 74.3158C142.928 74.0022 141.923 73.6947 140.908 73.3933C134.606 75.0778 128.574 77.6464 122.993 81.0225C133.26 87.1862 141.756 95.903 147.655 106.324C153.554 116.746 156.654 128.517 156.654 140.492C156.654 152.467 153.554 164.238 147.655 174.66C141.756 185.081 133.26 193.798 122.993 199.962C128.573 203.338 134.605 205.904 140.908 207.582C141.923 207.314 142.928 207.019 143.924 206.705C153.491 198.534 161.174 188.386 166.444 176.962C171.713 165.537 174.445 153.106 174.45 140.524Z" fill="#F2DBF3"/>
<path d="M17.7621 140.525C17.7825 125.763 22.4976 111.39 31.2256 99.485C39.9535 87.5797 52.2419 78.7589 66.3137 74.2982C77.4342 64.7454 90.7866 58.1549 105.133 55.1377C92.4338 52.4768 79.301 52.6821 66.6912 55.7384C54.0814 58.7947 42.3121 64.6252 32.2406 72.8052C22.169 80.9852 14.0488 91.3087 8.47144 103.024C2.89408 114.739 0 127.55 0 140.525C0 153.5 2.89408 166.312 8.47144 178.027C14.0488 189.742 22.169 200.065 32.2406 208.245C42.3121 216.425 54.0814 222.256 66.6912 225.312C79.301 228.368 92.4338 228.573 105.133 225.913C90.8114 222.888 77.4848 216.297 66.3876 206.752C52.3012 202.306 39.9958 193.491 31.2536 181.584C22.5113 169.677 17.7861 155.297 17.7621 140.525Z" fill="#F2DBF3"/>
<path d="M210.299 140.524C210.298 127.933 207.566 115.491 202.291 104.057C197.016 92.6238 189.324 82.4704 179.745 74.2974C167.159 70.3352 153.705 70.0344 140.954 73.4302C155.738 77.3715 168.807 86.0856 178.129 98.2185C187.451 110.351 192.505 125.224 192.505 140.524C192.505 155.825 187.451 170.697 178.129 182.83C168.807 194.963 155.738 203.677 140.954 207.618C153.703 211.027 167.161 210.726 179.745 206.751C189.326 198.579 197.019 188.426 202.294 176.992C207.569 165.559 210.3 153.116 210.299 140.524Z" fill="#EA9FCC"/>
<path d="M102.116 206.751C88.0346 202.307 75.736 193.491 67.0061 181.581C58.2763 169.672 53.5697 155.29 53.5697 140.524C53.5697 125.758 58.2763 111.376 67.0061 99.467C75.736 87.5578 88.0346 78.7411 102.116 74.2972C113.229 64.7485 126.571 58.1583 140.908 55.1367C128.209 52.4759 115.076 52.6811 102.466 55.7374C89.8562 58.7938 78.0869 64.6243 68.0153 72.8042C57.9438 80.9842 49.8236 91.3077 44.2462 103.023C38.6689 114.738 35.7748 127.549 35.7748 140.524C35.7748 153.499 38.6689 166.311 44.2462 178.026C49.8236 189.741 57.9438 200.064 68.0153 208.244C78.0869 216.424 89.8562 222.255 102.466 225.311C115.076 228.367 128.209 228.572 140.908 225.912C126.57 222.894 113.227 216.303 102.116 206.751Z" fill="#EA9FCC"/>
<path d="M158.814 53.2825C141.559 53.2825 124.692 58.3991 110.345 67.9854C95.9979 77.5716 84.8159 91.1969 78.2128 107.138C71.6097 123.08 69.882 140.621 73.2483 157.544C76.6145 174.467 84.9235 190.012 97.1244 202.213C109.325 214.414 124.87 222.723 141.794 226.09C158.717 229.456 176.258 227.728 192.2 221.125C208.141 214.522 221.766 203.34 231.352 188.993C240.939 174.646 246.055 157.779 246.055 140.524C246.028 117.394 236.828 95.2198 220.473 78.8646C204.118 62.5095 181.943 53.3093 158.814 53.2825ZM228.251 140.524C228.253 154.26 224.181 167.688 216.551 179.11C208.921 190.532 198.075 199.434 185.385 204.692C172.695 209.949 158.73 211.325 145.258 208.646C131.786 205.967 119.411 199.352 109.698 189.639C99.9855 179.927 93.3712 167.552 90.6919 154.079C88.0126 140.607 89.3886 126.643 94.646 113.953C99.9034 101.263 108.806 90.4171 120.228 82.7869C131.65 75.1567 145.078 71.0851 158.814 71.0869C177.223 71.1089 194.872 78.4316 207.889 91.4489C220.906 104.466 228.229 122.115 228.251 140.524Z" fill="#FF244E"/>
</svg>
