<svg width="160" height="40" viewBox="0 0 160 40" fill="none" xmlns="http://www.w3.org/2000/svg">
<path d="M24.0228 17.0036C24.0227 15.2704 23.6469 13.5578 22.9212 11.9838C22.1955 10.4099 21.1372 9.01191 19.8192 7.88631C19.682 7.84312 19.5436 7.80078 19.4038 7.75928C18.536 7.99124 17.7054 8.34495 16.9368 8.80985C18.3506 9.65863 19.5206 10.859 20.3329 12.2941C21.1452 13.7292 21.5721 15.3501 21.5721 16.9991C21.5721 18.6482 21.1452 20.2691 20.3329 21.7042C19.5206 23.1393 18.3506 24.3396 16.9368 25.1884C17.7052 25.6534 18.5359 26.0067 19.4038 26.2377C19.5436 26.2009 19.682 26.1602 19.8192 26.117C21.1366 24.9918 22.1946 23.5944 22.9203 22.0212C23.6459 20.4479 24.0221 18.7361 24.0228 17.0036Z" fill="#F2DBF3"/>
<path d="M2.44593 17.0036C2.44875 14.9708 3.09804 12.9916 4.29992 11.3522C5.50181 9.71276 7.19399 8.49809 9.13175 7.88383C10.6631 6.56836 12.5018 5.66081 14.4774 5.24533C12.7286 4.87892 10.9202 4.90718 9.18374 5.32805C7.4473 5.74892 5.8266 6.55182 4.4397 7.67824C3.05279 8.80467 1.93459 10.2263 1.16656 11.8395C0.39853 13.4527 0 15.2169 0 17.0036C0 18.7903 0.39853 20.5546 1.16656 22.1678C1.93459 23.781 3.05279 25.2026 4.4397 26.329C5.8266 27.4555 7.4473 28.2583 9.18374 28.6792C10.9202 29.1001 12.7286 29.1284 14.4774 28.7619C12.5052 28.3454 10.6701 27.4379 9.14192 26.1234C7.20215 25.5111 5.50763 24.2973 4.30378 22.6576C3.09993 21.018 2.44923 19.0377 2.44593 17.0036V17.0036Z" fill="#F2DBF3"/>
<path d="M28.9592 17.0033C28.9591 15.2693 28.5829 13.556 27.8565 11.9816C27.1301 10.4071 26.0709 9.00894 24.7518 7.88347C23.0186 7.33785 21.1659 7.29644 19.41 7.76406C21.4459 8.30679 23.2455 9.50677 24.5292 11.1775C25.813 12.8483 26.5089 14.8963 26.5089 17.0033C26.5089 19.1103 25.813 21.1582 24.5292 22.829C23.2455 24.4998 21.4459 25.6998 19.41 26.2425C21.1657 26.7119 23.0189 26.6704 24.7518 26.1231C26.0711 24.9978 27.1304 23.5996 27.8568 22.0251C28.5832 20.4506 28.9593 18.7373 28.9592 17.0033V17.0033Z" fill="#EA9FCC"/>
<path d="M14.0619 26.1234C12.1228 25.5115 10.4292 24.2974 9.22706 22.6574C8.02491 21.0175 7.37678 19.037 7.37678 17.0036C7.37678 14.9703 8.02491 12.9898 9.22706 11.3498C10.4292 9.70988 12.1228 8.49578 14.0619 7.88383C15.5922 6.56893 17.4295 5.66141 19.4037 5.24533C17.655 4.87892 15.8465 4.90718 14.1101 5.32805C12.3736 5.74892 10.7529 6.55182 9.36603 7.67824C7.97912 8.80467 6.86092 10.2263 6.09289 11.8395C5.32486 13.4527 4.92633 15.2169 4.92633 17.0036C4.92633 18.7903 5.32486 20.5546 6.09289 22.1678C6.86092 23.781 7.97912 25.2026 9.36603 26.329C10.7529 27.4555 12.3736 28.2583 14.1101 28.6792C15.8465 29.1001 17.655 29.1284 19.4037 28.7619C17.4293 28.3464 15.5919 27.4388 14.0619 26.1234V26.1234Z" fill="#EA9FCC"/>
<path d="M21.8695 4.98999C19.4935 4.98999 17.1708 5.69458 15.1951 7.01466C13.2195 8.33473 11.6797 10.211 10.7704 12.4062C9.8611 14.6014 9.62319 17.017 10.0867 19.3474C10.5503 21.6778 11.6945 23.8184 13.3746 25.4986C15.0548 27.1787 17.1954 28.3229 19.5258 28.7864C21.8562 29.25 24.2718 29.0121 26.467 28.1028C28.6622 27.1935 30.5385 25.6537 31.8585 23.6781C33.1786 21.7024 33.8832 19.3797 33.8832 17.0036C33.8795 13.8186 32.6126 10.765 30.3604 8.51279C28.1082 6.2606 25.0546 4.99369 21.8695 4.98999V4.98999ZM31.4314 17.0036C31.4317 18.8952 30.871 20.7443 29.8203 22.3171C28.7696 23.89 27.276 25.1159 25.5285 25.8399C23.781 26.5638 21.8581 26.7533 20.0029 26.3844C18.1477 26.0154 16.4436 25.1046 15.1061 23.7671C13.7686 22.4296 12.8578 20.7255 12.4888 18.8703C12.1199 17.0151 12.3094 15.0921 13.0333 13.3447C13.7573 11.5972 14.9832 10.1036 16.5561 9.05291C18.1289 8.00219 19.978 7.4415 21.8695 7.44175C24.4046 7.44478 26.8349 8.45316 28.6275 10.2457C30.42 12.0383 31.4284 14.4686 31.4314 17.0036V17.0036Z" fill="#FF244E"/>
<path d="M44.253 10.8734C44.9864 9.32207 46.1428 8.0387 47.7223 7.02329C49.3301 5.97966 51.234 5.45785 53.434 5.45785C55.5213 5.45785 57.397 5.95146 59.0611 6.93867C60.7535 7.89767 62.0651 9.27976 62.9959 11.0849C63.9549 12.8619 64.4344 14.9351 64.4344 17.3044C64.4344 19.6737 63.9549 21.7609 62.9959 23.5661C62.0651 25.3713 60.7535 26.7675 59.0611 27.7547C57.397 28.7419 55.5213 29.2355 53.434 29.2355C51.2622 29.2355 49.3724 28.7278 47.7646 27.7124C46.1569 26.6687 44.9864 25.3713 44.253 23.8199V39.8127H41.3337V5.79633H44.253V10.8734ZM61.4304 17.3044C61.4304 15.3864 61.0496 13.7363 60.2881 12.3542C59.5547 10.9439 58.5393 9.87209 57.2418 9.13873C55.9444 8.40538 54.4777 8.0387 52.8417 8.0387C51.2622 8.0387 49.8096 8.41948 48.4839 9.18104C47.1864 9.9426 46.1569 11.0285 45.3953 12.4388C44.6338 13.8491 44.253 15.4851 44.253 17.3467C44.253 19.2083 44.6338 20.8442 45.3953 22.2545C46.1569 23.6648 47.1864 24.7507 48.4839 25.5123C49.8096 26.2739 51.2622 26.6546 52.8417 26.6546C54.4777 26.6546 55.9444 26.288 57.2418 25.5546C58.5393 24.793 59.5547 23.7071 60.2881 22.2968C61.0496 20.8583 61.4304 19.1942 61.4304 17.3044Z" fill="#2F2D32"/>
<path d="M69.884 9.90029C70.5327 8.46179 71.5199 7.34765 72.8456 6.55789C74.1995 5.76812 75.8495 5.37324 77.7957 5.37324V8.46179H76.9919C74.8482 8.46179 73.1276 9.04001 71.8302 10.1965C70.5327 11.3529 69.884 13.285 69.884 15.9928V28.897H66.9223V5.79633H69.884V9.90029Z" fill="#2F2D32"/>
<path d="M89.4013 29.2355C87.2294 29.2355 85.2691 28.756 83.5203 27.797C81.7998 26.8098 80.4318 25.4277 79.4164 23.6507C78.4291 21.8455 77.9355 19.7442 77.9355 17.3467C77.9355 14.9492 78.4433 12.8619 79.4587 11.0849C80.4741 9.27976 81.8562 7.89767 83.6049 6.93867C85.3537 5.95146 87.314 5.45785 89.4859 5.45785C91.6577 5.45785 93.6181 5.95146 95.3668 6.93867C97.1438 7.89767 98.5259 9.27976 99.5131 11.0849C100.529 12.8619 101.036 14.9492 101.036 17.3467C101.036 19.716 100.529 21.8032 99.5131 23.6084C98.4977 25.4136 97.1015 26.8098 95.3245 27.797C93.5475 28.756 91.5731 29.2355 89.4013 29.2355ZM89.4013 26.6546C90.9244 26.6546 92.3347 26.3162 93.6322 25.6392C94.9296 24.9341 95.9733 23.8905 96.763 22.5084C97.581 21.0981 97.99 19.3775 97.99 17.3467C97.99 15.3158 97.5951 13.6094 96.8053 12.2273C96.0156 10.817 94.972 9.77337 93.6745 9.09642C92.377 8.39127 90.9667 8.0387 89.4436 8.0387C87.9205 8.0387 86.5102 8.39127 85.2127 9.09642C83.9152 9.77337 82.8716 10.817 82.0818 12.2273C81.3203 13.6094 80.9395 15.3158 80.9395 17.3467C80.9395 19.3775 81.3203 21.0981 82.0818 22.5084C82.8716 23.8905 83.9011 24.9341 85.1704 25.6392C86.4679 26.3162 87.8782 26.6546 89.4013 26.6546Z" fill="#2F2D32"/>
<path d="M107.323 8.29255V22.6353C107.323 24.0456 107.591 25.0187 108.127 25.5546C108.663 26.0905 109.608 26.3585 110.962 26.3585H113.67V28.897H110.497C108.409 28.897 106.858 28.4175 105.843 27.4585C104.827 26.4713 104.319 24.8636 104.319 22.6353V8.29255H101.104V5.79633H104.319V0H107.323V5.79633H113.67V8.29255H107.323Z" fill="#2F2D32"/>
<path d="M125.704 29.2355C123.532 29.2355 121.572 28.756 119.823 27.797C118.103 26.8098 116.735 25.4277 115.719 23.6507C114.732 21.8455 114.239 19.7442 114.239 17.3467C114.239 14.9492 114.746 12.8619 115.762 11.0849C116.777 9.27976 118.159 7.89767 119.908 6.93867C121.657 5.95146 123.617 5.45785 125.789 5.45785C127.961 5.45785 129.921 5.95146 131.67 6.93867C133.447 7.89767 134.829 9.27976 135.816 11.0849C136.832 12.8619 137.339 14.9492 137.339 17.3467C137.339 19.716 136.832 21.8032 135.816 23.6084C134.801 25.4136 133.405 26.8098 131.628 27.797C129.851 28.756 127.876 29.2355 125.704 29.2355ZM125.704 26.6546C127.227 26.6546 128.638 26.3162 129.935 25.6392C131.233 24.9341 132.276 23.8905 133.066 22.5084C133.884 21.0981 134.293 19.3775 134.293 17.3467C134.293 15.3158 133.898 13.6094 133.108 12.2273C132.319 10.817 131.275 9.77337 129.978 9.09642C128.68 8.39127 127.27 8.0387 125.747 8.0387C124.224 8.0387 122.813 8.39127 121.516 9.09642C120.218 9.77337 119.175 10.817 118.385 12.2273C117.623 13.6094 117.243 15.3158 117.243 17.3467C117.243 19.3775 117.623 21.0981 118.385 22.5084C119.175 23.8905 120.204 24.9341 121.473 25.6392C122.771 26.3162 124.181 26.6546 125.704 26.6546Z" fill="#2F2D32"/>
<path d="M150.607 5.37324C153.372 5.37324 155.628 6.23352 157.377 7.95408C159.126 9.64644 160 12.1145 160 15.3581V28.897H157.081V15.6966C157.081 13.1863 156.446 11.2683 155.177 9.9426C153.936 8.61692 152.229 7.95408 150.057 7.95408C147.829 7.95408 146.052 8.65923 144.726 10.0695C143.401 11.4798 142.738 13.553 142.738 16.2889V28.897H139.776V5.79633H142.738V9.73106C143.471 8.32076 144.529 7.24893 145.911 6.51558C147.293 5.75402 148.859 5.37324 150.607 5.37324Z" fill="#2F2D32"/>
</svg>
