<?xml version="1.0" encoding="UTF-8"?>
<!-- Generated by Pixelmator Pro 3.5.1 -->
<svg width="100" height="100" viewBox="0 0 100 100" xmlns="http://www.w3.org/2000/svg">
    <linearGradient id="linearGradient1" x1="183.693696" y1="50.522826" x2="-242.55" y2="50.522826" gradientUnits="userSpaceOnUse">
        <stop offset="1e-05" stop-color="#d53c97" stop-opacity="1"/>
        <stop offset="0.52" stop-color="#ac1bb5" stop-opacity="1"/>
        <stop offset="1" stop-color="#8934d9" stop-opacity="1"/>
    </linearGradient>
    <path id="Path" fill="url(#linearGradient1)" stroke="none" d="M 70.791084 50.503262 C 70.790871 45.395866 69.683258 40.349133 67.544785 35.710869 C 65.406303 31.072609 62.287609 26.953087 58.403915 23.636108 C 57.999565 23.508827 57.591522 23.384041 57.179783 23.261757 C 54.622395 23.945328 52.174786 24.987656 49.909782 26.357651 C 54.076088 28.858871 57.523914 32.396133 59.917606 36.625214 C 62.311306 40.85413 63.569347 45.630871 63.569347 50.490219 C 63.569347 55.349567 62.311306 60.126305 59.917606 64.355438 C 57.523914 68.584351 54.076088 72.121521 49.909782 74.622826 C 52.174129 75.993042 54.621956 77.034348 57.179783 77.714996 C 57.591522 77.606308 57.999565 77.486526 58.403915 77.359344 C 62.286087 74.04348 65.403694 69.925652 67.541954 65.289566 C 69.680435 60.653259 70.788918 55.60891 70.791084 50.503262 Z"/>
    <linearGradient id="linearGradient2" x1="23562.173912" y1="5636.999999" x2="-213.675435" y2="5636.999999" gradientUnits="userSpaceOnUse">
        <stop offset="1e-05" stop-color="#d53c97" stop-opacity="1"/>
        <stop offset="0.52" stop-color="#ac1bb5" stop-opacity="1"/>
        <stop offset="1" stop-color="#8934d9" stop-opacity="1"/>
    </linearGradient>
    <path id="path1" fill="url(#linearGradient2)" stroke="none" d="M 57.813042 23.130676 L 57.191521 23.284172 C 57.390003 23.224258 57.60326 23.183083 57.813042 23.130676 Z"/>
    <linearGradient id="linearGradient3" x1="206.719783" y1="50.503261" x2="-1.906385" y2="50.503261" gradientUnits="userSpaceOnUse">
        <stop offset="1e-05" stop-color="#d53c97" stop-opacity="1"/>
        <stop offset="0.52" stop-color="#ac1bb5" stop-opacity="1"/>
        <stop offset="1" stop-color="#8934d9" stop-opacity="1"/>
    </linearGradient>
    <path id="path2" fill="url(#linearGradient3)" stroke="none" d="M 7.207804 50.503262 C 7.216087 44.513042 9.129457 38.680431 12.67124 33.849365 C 16.213022 29.018196 21.199608 25.438744 26.91 23.628632 C 31.422609 19.752106 36.84087 17.077698 42.662609 15.853348 C 37.509346 14.773575 32.180218 14.85685 27.063044 16.097107 C 21.946087 17.337364 17.17013 19.703369 13.083131 23.022781 C 8.996108 26.342178 5.700957 30.53141 3.437696 35.285439 C 1.174409 40.039349 -0 45.238045 -0 50.503262 C -0 55.768478 1.174409 60.967392 3.437696 65.721306 C 5.700957 70.47522 8.996108 74.664566 13.083131 77.983917 C 17.17013 81.303261 21.946087 83.66935 27.063044 84.909561 C 32.180218 86.14978 37.509346 86.23304 42.662609 85.153267 C 36.851086 83.925652 31.443045 81.251526 26.939781 77.378044 C 21.223654 75.5737 16.230173 71.996521 12.682609 67.16478 C 9.135021 62.333046 7.217522 56.497608 7.207804 50.503262 Z"/>
    <linearGradient id="linearGradient4" x1="23562.173912" y1="15965.304351" x2="-213.675435" y2="15965.304351" gradientUnits="userSpaceOnUse">
        <stop offset="1e-05" stop-color="#d53c97" stop-opacity="1"/>
        <stop offset="0.52" stop-color="#ac1bb5" stop-opacity="1"/>
        <stop offset="1" stop-color="#8934d9" stop-opacity="1"/>
    </linearGradient>
    <path id="path3" fill="url(#linearGradient4)" stroke="none" d="M 57.179565 77.729782 C 57.385437 77.786087 57.595001 77.834564 57.800869 77.886955 C 57.602394 77.827179 57.38913 77.786087 57.179565 77.729782 Z"/>
    <linearGradient id="linearGradient5" x1="110.448261" y1="50.50087" x2="-205.846739" y2="50.50087" gradientUnits="userSpaceOnUse">
        <stop offset="1e-05" stop-color="#ff3b65" stop-opacity="1"/>
        <stop offset="0.61" stop-color="#f9597c" stop-opacity="1"/>
        <stop offset="1" stop-color="#d53c97" stop-opacity="1"/>
    </linearGradient>
    <path id="path4" fill="url(#linearGradient5)" stroke="none" d="M 85.338913 50.503262 C 85.338692 45.393696 84.230003 40.344784 82.089348 35.705002 C 79.948914 31.065392 76.827393 26.945152 72.940437 23.628586 C 67.832825 22.020714 62.37326 21.898674 57.198914 23.276695 C 63.198479 24.876045 68.501526 28.412193 72.284569 33.335693 C 76.06739 38.259132 78.118256 44.29435 78.118256 50.503262 C 78.118256 56.712177 76.06739 62.747391 72.284569 67.670868 C 68.501526 72.594345 63.198479 76.130432 57.198914 77.729782 C 62.372608 79.113045 67.833694 78.991089 72.940437 77.378044 C 76.828041 74.061958 79.949783 69.941742 82.090439 65.301956 C 84.231087 60.662174 85.339348 55.613045 85.338913 50.503262 Z"/>
    <linearGradient id="linearGradient6" x1="172.743043" y1="50.503261" x2="-35.883043" y2="50.503261" gradientUnits="userSpaceOnUse">
        <stop offset="1e-05" stop-color="#ff3b65" stop-opacity="1"/>
        <stop offset="0.61" stop-color="#f9597c" stop-opacity="1"/>
        <stop offset="1" stop-color="#d53c97" stop-opacity="1"/>
    </linearGradient>
    <path id="path5" fill="url(#linearGradient6)" stroke="none" d="M 41.438259 77.378044 C 35.723915 75.574783 30.733259 71.996956 27.190653 67.164131 C 23.648045 62.331524 21.738195 56.495434 21.738195 50.503262 C 21.738195 44.511307 23.648045 38.675217 27.190653 33.842438 C 30.733259 29.009697 35.723915 25.431938 41.438259 23.628632 C 45.947609 19.753784 51.361954 17.079475 57.179783 15.853348 C 52.02652 14.773575 46.697174 14.85685 41.580215 16.097107 C 36.463261 17.337364 31.687174 19.703369 27.600218 23.022781 C 23.513262 26.342178 20.218042 30.53141 17.95476 35.285439 C 15.691479 40.039349 14.517086 45.238045 14.517086 50.503262 C 14.517086 55.768478 15.691479 60.967392 17.95476 65.721306 C 20.218042 70.47522 23.513262 74.664566 27.600218 77.983917 C 31.687174 81.303261 36.463261 83.66935 41.580215 84.909561 C 46.697174 86.14978 52.02652 86.23304 57.179783 85.153267 C 51.361523 83.928696 45.946739 81.254128 41.438259 77.378044 Z"/>
    <path id="path6" fill="#ffffff" stroke="none" d="M 64.445869 15.100891 C 57.443913 15.100891 50.599346 17.177216 44.777393 21.067284 C 38.955437 24.957352 34.417828 30.486458 31.73826 36.955437 C 29.058695 43.424351 28.357609 50.542606 29.723696 57.41 C 31.089783 64.27739 34.461521 70.585434 39.412609 75.536522 C 44.363697 80.487823 50.671738 83.859566 57.539131 85.225433 C 64.406525 86.591522 71.524788 85.890442 77.993912 83.210869 C 84.46283 80.531303 89.991959 75.993698 93.881958 70.171959 C 97.771957 64.349998 99.848259 57.505219 99.848259 50.503262 C 99.837395 41.11739 96.104134 32.118935 89.467171 25.482063 C 82.830215 18.845169 73.831955 15.111794 64.445869 15.100891 Z M 92.62326 50.503262 C 92.62413 56.077393 90.971741 61.526302 87.875435 66.161301 C 84.779137 70.796303 80.378044 74.408913 75.228256 76.542389 C 70.07869 78.675873 64.412178 79.234131 58.945217 78.146957 C 53.47826 77.059784 48.456524 74.375648 44.514999 70.434128 C 40.573696 66.492828 37.889565 61.471085 36.802177 56.003914 C 35.715 50.536957 36.273479 44.870434 38.406742 39.720867 C 40.540218 34.571259 44.152828 30.169998 48.787827 27.073692 C 53.422825 23.977394 58.871956 22.325127 64.445869 22.325867 C 71.916306 22.334801 79.078041 25.306351 84.360435 30.588699 C 89.642822 35.871086 92.614349 43.033043 92.62326 50.503262 Z"/>
</svg>
